<?xml version="1.0" standalone="no"?>
<!DOCTYPE svg PUBLIC "-//W3C//DTD SVG 20010904//EN"
 "http://www.w3.org/TR/2001/REC-SVG-20010904/DTD/svg10.dtd">
<svg version="1.0" xmlns="http://www.w3.org/2000/svg"
 width="287.000000pt" height="400.000000pt" viewBox="0 0 287.000000 400.000000"
 preserveAspectRatio="xMidYMid meet">

<g transform="translate(0.000000,400.000000) scale(0.100000,-0.100000)"
fill="#fff" stroke="none">
<path d="M1183 3849 c-253 -53 -453 -161 -630 -341 -236 -240 -354 -550 -340
-892 7 -186 46 -335 127 -496 130 -258 369 -474 640 -579 l67 -26 173 -210
c95 -116 178 -216 184 -222 9 -10 52 37 194 211 175 215 186 225 240 247 345
137 601 401 718 741 127 371 56 805 -182 1118 -141 186 -364 342 -590 413
-192 61 -419 74 -601 36z m696 -696 c-8 -9 -112 -133 -231 -276 l-218 -260 0
-193 0 -194 104 0 c121 0 136 -4 136 -35 0 -44 -13 -45 -290 -43 -238 3 -264
5 -274 21 -8 12 -8 22 0 35 9 14 29 17 123 20 l111 3 0 197 0 197 -225 267
c-124 147 -225 269 -225 272 0 4 226 6 501 6 469 0 501 -1 488 -17z"/>
<path d="M1082 3072 c8 -19 302 -362 308 -360 4 2 56 62 116 133 59 72 128
154 152 183 l44 52 -312 0 c-171 0 -310 -4 -308 -8z"/>
<path d="M1680 609 l0 -290 28 3 c20 2 28 9 30 27 l4 23 29 -28 c39 -37 119
-45 166 -15 94 59 110 246 28 328 -29 29 -39 33 -88 33 -41 0 -63 -6 -91 -25
l-36 -24 0 129 0 130 -35 0 -35 0 0 -291z m226 0 c39 -32 40 -155 4 -202 -78
-98 -205 46 -145 163 28 53 100 73 141 39z"/>
<path d="M212 673 c-44 -21 -70 -61 -82 -122 -17 -91 8 -167 73 -215 50 -37
193 -31 228 10 18 22 -5 69 -29 59 -72 -31 -95 -35 -128 -25 -37 13 -74 53
-74 81 0 16 7 17 68 12 117 -10 180 35 169 120 -4 30 -15 50 -37 70 -26 23
-39 27 -93 27 -36 0 -75 -7 -95 -17z m122 -53 c20 -7 26 -16 26 -40 0 -24 -6
-33 -26 -40 -31 -12 -94 -13 -113 -1 -23 15 -5 60 32 76 39 17 48 18 81 5z"/>
<path d="M572 675 c-28 -12 -33 -19 -30 -42 3 -30 13 -32 78 -15 66 17 130
-18 130 -70 0 -31 -3 -33 -32 -17 -30 16 -112 13 -148 -6 -69 -36 -75 -131
-12 -186 32 -29 40 -31 94 -27 47 3 64 10 88 33 l30 29 0 -27 c0 -24 4 -27 35
-27 41 0 43 10 21 85 -10 32 -13 69 -9 110 11 114 -43 175 -153 175 -33 -1
-74 -7 -92 -15z m137 -205 c41 -21 35 -62 -11 -86 -64 -33 -130 16 -94 71 12
19 25 25 52 25 19 0 43 -4 53 -10z"/>
<path d="M972 670 c-47 -29 -59 -61 -41 -113 13 -38 21 -45 92 -80 71 -35 78
-40 75 -65 -5 -40 -51 -50 -112 -24 l-46 21 -15 -22 c-21 -30 -19 -35 18 -57
40 -25 134 -27 177 -5 30 16 60 61 60 90 0 47 -32 85 -99 116 -36 17 -69 36
-73 43 -26 40 20 65 88 46 49 -14 63 -7 64 32 0 39 -132 52 -188 18z"/>
<path d="M1244 677 c-2 -7 23 -81 56 -165 82 -205 81 -195 28 -267 -24 -33
-47 -65 -51 -72 -8 -13 18 -43 38 -43 54 0 203 283 251 474 18 71 13 86 -26
86 -30 0 -42 -19 -59 -96 -17 -75 -47 -178 -59 -198 -3 -5 -25 54 -50 130 -24
76 -49 145 -54 152 -14 16 -67 16 -74 -1z"/>
<path d="M2143 670 c-37 -22 -39 -28 -19 -55 11 -16 18 -17 42 -7 86 34 164 2
164 -68 0 -30 0 -30 -25 -14 -31 20 -114 20 -154 -1 -33 -17 -61 -61 -61 -95
0 -12 7 -36 15 -54 37 -78 149 -90 223 -23 l22 20 0 -26 c0 -24 4 -27 35 -27
40 0 41 3 20 80 -10 36 -13 73 -9 108 8 70 -15 134 -60 162 -46 28 -148 28
-193 0z m155 -210 c27 -25 27 -35 2 -60 -43 -43 -113 -34 -126 15 -14 58 75
90 124 45z"/>
<path d="M2514 677 c-2 -7 -3 -89 -2 -182 l3 -170 38 -3 37 -3 0 103 c0 80 5
112 20 146 20 43 22 45 80 46 33 1 35 3 35 36 0 31 -3 35 -29 38 -46 6 -75 -6
-95 -39 l-19 -30 -7 28 c-10 40 -49 60 -61 30z"/>
</g>
</svg>
